<?xml version="1.0" encoding="utf-8"?>
<!-- Generator: Adobe Illustrator 27.1.1, SVG Export Plug-In . SVG Version: 6.00 Build 0)  -->
<svg version="1.1" id="圖層_2" xmlns="http://www.w3.org/2000/svg" xmlns:xlink="http://www.w3.org/1999/xlink" x="0px" y="0px"
	 viewBox="0 0 97.41 72" style="enable-background:new 0 0 97.41 72;" xml:space="preserve">
<style type="text/css">
</style>
<path class="st0" d="M83.45,52.94c0-1.13,0-2.27,0-3.4c-1.83-0.96-2.31-2.73-2.96-4.52c-1.82-5-3.76-9.97-5.78-14.9
	c-1.42-3.48-4.14-4.81-7.91-4.77c-10.87,0.13-21.75,0.09-32.62,0.1c-0.68,0-1.36-0.1-2.03-0.16c0.02-0.17,0.03-0.34,0.05-0.51
	c12.17,0,24.33,0,36.32,0c-0.62-1.93-1.66-3.7-1.62-5.45c0.05-1.8,1.16-3.57,1.86-5.49c-5.74,0-11.48,0-17.22,0
	c-9.59,0-19.19-0.03-28.78,0.03c-2.46,0.01-4.86,0.49-6.1,3c-0.99,1.99-1.06,4.18,0.53,5.74c1.3,1.27,3.19,1.94,4.67,2.79
	c0.13-0.05-0.06,0.09-0.25,0.09c-3.91-0.07-4.98,0.94-5.13,4.67c-0.24,6.08-0.54,12.16-0.86,18.24c-0.03,0.51-0.25,1.09-0.56,1.5
	c-0.74,0.97-1.55,1.81-0.81,3.18c0.8,1.48,1.89,2.41,3.64,2.39c0.62-0.01,1.24,0,1.84,0c0.46,3.64,2.09,5.37,4.91,5.55
	c1.94,0.12,3.89-0.07,4.93-1.77c0.92-1.49,1.24-3.33,1.67-4.54c0.49,0.21,1.14,0.7,1.79,0.71c4.76,0.07,9.52,0.04,14.28,0.04
	c5.96,0,11.92,0,17.84,0c0.85,3.53,2.47,5.34,4.86,5.54c3.84,0.32,4.95-0.5,7.33-5.56C79.83,55.79,82.09,55.43,83.45,52.94z
	 M64.17,16.69c0,1.94,0,3.67,0,5.6c-4.2,0-8.31,0-12.41,0c-6.11,0-12.22,0.02-18.33-0.02c-0.6,0-1.19-0.35-1.79-0.53
	c0.07-0.29,0.14-0.59,0.2-0.88c9.64,0,19.28,0,29.24,0c-1.18-1.2-34.7-1.62-38.51-0.8c-0.09,0.68-0.19,1.36-0.29,2.14
	c-1.92,0.11-3.35-0.66-3.56-2.36c-0.11-0.9,0.84-2.1,1.62-2.85c0.43-0.42,1.48-0.28,2.25-0.28c12.15-0.01,24.3-0.01,36.45,0
	C60.72,16.69,62.4,16.69,64.17,16.69z M75.13,35.95c-3.55,0-6.73,0.02-9.92-0.01c-2.26-0.02-5.15,0.71-6.62-0.39
	c-1.55-1.17-1.69-4.15-2.58-6.28c-0.63-1.52-0.07-1.91,1.35-1.9c3.97,0.02,7.95-0.09,11.92,0.07c0.88,0.03,2.08,0.75,2.52,1.5
	C73.02,31.04,73.92,33.34,75.13,35.95z M54.26,35.95c-3.37,0-6.39,0-9.41,0c-6.66,0-6.59-0.02-8.49-6.49
	c-0.48-1.63-0.04-2.09,1.47-2.09c3.83,0.01,7.67-0.08,11.5,0.05c0.85,0.03,2.13,0.58,2.43,1.25C52.74,30.88,53.37,33.26,54.26,35.95
	z M36.28,35.77c-6.1,0-11.87,0-17.74,0c0-1.88,0.01-3.58,0-5.28c-0.01-3.06,0.72-3.6,4.08-2.73c0,1.2,0,2.47,0,4.09
	c1.67-1.53,3-2.75,4.43-4.06c1.45,1.34,2.78,2.56,4.32,3.98c0.13-1.65,0.24-3.02,0.39-4.86C35.32,29.28,34.76,32.89,36.28,35.77z
	 M78.25,41.22c-1.94-0.49-3.81-1.3-5.7-1.37c-11.84-0.42-23.68-0.69-35.52-0.98c-2.47-0.06-4.95-0.01-7.78-0.01
	c0.46-0.21,0.56-0.29,0.67-0.29c14.26-0.03,28.53-0.1,42.79-0.03C74.81,38.55,76.98,39.12,78.25,41.22z M28.04,55.22
	c0,1.78-0.96,2.82-2.59,2.89c-1.82,0.08-2.75-0.93-2.97-2.54c-0.21-1.52,1.43-3.11,3.07-3.07C27.28,52.53,28.01,53.59,28.04,55.22z
	 M71.92,52.86c0.87-0.01,1.79,0.89,1.93,2.51c0.13,1.54-1.15,2.75-2.79,2.71c-1.68-0.04-2.55-0.95-2.55-2.63
	C68.5,53.75,69.37,52.87,71.92,52.86z M76.75,44.32l0.5-0.53c0.32-0.34,0.86-0.33,1.17,0.02c0.52,0.6,1.04,1.19,1.4,1.86
	c0.08,0.15-0.3,0.51-0.69,0.87c-0.3,0.28-0.75,0.29-1.06,0.02l-1.27-1.1C76.47,45.17,76.45,44.65,76.75,44.32z"/>
<path class="st0" d="M23.91,18.36c0,0,32.65-0.62,35.38,0s1.85,0.79,1.85,0.79L23.91,18.36z"/>
</svg>